<?xml version="1.0" encoding="UTF-8" standalone="no"?>
<!DOCTYPE svg PUBLIC "-//W3C//DTD SVG 1.1//EN"
 "http://www.w3.org/Graphics/SVG/1.1/DTD/svg11.dtd">
<!-- Generated by graphviz version 2.43.0 (0)
 -->
<!-- Title: %3 Pages: 1 -->
<svg width="392pt" height="772pt"
 viewBox="0.00 0.00 392.00 772.00" xmlns="http://www.w3.org/2000/svg" xmlns:xlink="http://www.w3.org/1999/xlink">
<g id="graph0" class="graph" transform="scale(1 1) rotate(0) translate(4 768)">
<title>%3</title>
<polygon fill="white" stroke="transparent" points="-4,4 -4,-768 388,-768 388,4 -4,4"/>
<g id="clust1" class="cluster">
<title>cluster_0</title>
<polygon fill="none" stroke="blue" points="8,-154 8,-756 188,-756 188,-154 8,-154"/>
<text text-anchor="middle" x="43" y="-740.8" font-family="Times,serif" font-size="14.00">pattern</text>
</g>
<g id="clust2" class="cluster">
<title>cluster_1</title>
<polygon fill="none" stroke="yellow" points="196,-8 196,-755 376,-755 376,-8 196,-8"/>
<text text-anchor="middle" x="226" y="-739.8" font-family="Times,serif" font-size="14.00">action</text>
</g>
<!-- input -->
<g id="node1" class="node">
<title>input</title>
<polygon fill="lightgrey" stroke="black" points="131,-725 65,-725 65,-687 131,-687 131,-725"/>
<text text-anchor="middle" x="98" y="-709.8" font-family="Times,serif" font-size="14.00">input=</text>
<text text-anchor="middle" x="98" y="-694.8" font-family="Times,serif" font-size="14.00">*</text>
</g>
<!-- reshape_1 -->
<g id="node2" class="node">
<title>reshape_1</title>
<polygon fill="lightgrey" stroke="black" points="173.5,-650 22.5,-650 22.5,-612 173.5,-612 173.5,-650"/>
<text text-anchor="middle" x="98" y="-634.8" font-family="Times,serif" font-size="14.00">reshape_1=</text>
<text text-anchor="middle" x="98" y="-619.8" font-family="Times,serif" font-size="14.00">com.xilinx:reshape</text>
</g>
<!-- input&#45;&gt;reshape_1 -->
<g id="edge1" class="edge">
<title>input&#45;&gt;reshape_1</title>
<path fill="none" stroke="black" d="M98,-686.96C98,-678.88 98,-669.18 98,-660.18"/>
<polygon fill="black" stroke="black" points="101.5,-660.09 98,-650.09 94.5,-660.09 101.5,-660.09"/>
</g>
<!-- input1 -->
<g id="node9" class="node">
<title>input1</title>
<polygon fill="lightgrey" stroke="black" points="313,-724 259,-724 259,-688 313,-688 313,-724"/>
<text text-anchor="middle" x="286" y="-702.3" font-family="Times,serif" font-size="14.00">input</text>
</g>
<!-- input&#45;&gt;input1 -->
<g id="edge17" class="edge">
<title>input&#45;&gt;input1</title>
<path fill="none" stroke="black" stroke-dasharray="1,5" d="M131.18,-706C164.14,-706 214.58,-706 248.86,-706"/>
<polygon fill="black" stroke="black" points="248.94,-709.5 258.94,-706 248.94,-702.5 248.94,-709.5"/>
<text text-anchor="middle" x="195" y="-712.8" font-family="Times,serif" font-size="14.00">identity</text>
</g>
<!-- float2fix_1 -->
<g id="node3" class="node">
<title>float2fix_1</title>
<polygon fill="lightgrey" stroke="black" points="174,-575 22,-575 22,-537 174,-537 174,-575"/>
<text text-anchor="middle" x="98" y="-559.8" font-family="Times,serif" font-size="14.00">float2fix_1=</text>
<text text-anchor="middle" x="98" y="-544.8" font-family="Times,serif" font-size="14.00">com.xilinx:float2fix</text>
</g>
<!-- reshape_1&#45;&gt;float2fix_1 -->
<g id="edge2" class="edge">
<title>reshape_1&#45;&gt;float2fix_1</title>
<path fill="none" stroke="black" d="M98,-611.96C98,-603.88 98,-594.18 98,-585.18"/>
<polygon fill="black" stroke="black" points="101.5,-585.09 98,-575.09 94.5,-585.09 101.5,-585.09"/>
</g>
<!-- fix2float_1 -->
<g id="node4" class="node">
<title>fix2float_1</title>
<polygon fill="lightgrey" stroke="black" points="174,-500 22,-500 22,-462 174,-462 174,-500"/>
<text text-anchor="middle" x="98" y="-484.8" font-family="Times,serif" font-size="14.00">fix2float_1=</text>
<text text-anchor="middle" x="98" y="-469.8" font-family="Times,serif" font-size="14.00">com.xilinx:fix2float</text>
</g>
<!-- float2fix_1&#45;&gt;fix2float_1 -->
<g id="edge3" class="edge">
<title>float2fix_1&#45;&gt;fix2float_1</title>
<path fill="none" stroke="black" d="M98,-536.96C98,-528.88 98,-519.18 98,-510.18"/>
<polygon fill="black" stroke="black" points="101.5,-510.09 98,-500.09 94.5,-510.09 101.5,-510.09"/>
</g>
<!-- transpose -->
<g id="node5" class="node">
<title>transpose</title>
<polygon fill="lightgrey" stroke="black" points="180,-425 16,-425 16,-387 180,-387 180,-425"/>
<text text-anchor="middle" x="98" y="-409.8" font-family="Times,serif" font-size="14.00">transpose=</text>
<text text-anchor="middle" x="98" y="-394.8" font-family="Times,serif" font-size="14.00">com.xilinx:transpose</text>
</g>
<!-- fix2float_1&#45;&gt;transpose -->
<g id="edge4" class="edge">
<title>fix2float_1&#45;&gt;transpose</title>
<path fill="none" stroke="black" d="M98,-461.96C98,-453.88 98,-444.18 98,-435.18"/>
<polygon fill="black" stroke="black" points="101.5,-435.09 98,-425.09 94.5,-435.09 101.5,-435.09"/>
</g>
<!-- float2fix_2 -->
<g id="node6" class="node">
<title>float2fix_2</title>
<polygon fill="lightgrey" stroke="black" points="174,-350 22,-350 22,-312 174,-312 174,-350"/>
<text text-anchor="middle" x="98" y="-334.8" font-family="Times,serif" font-size="14.00">float2fix_2=</text>
<text text-anchor="middle" x="98" y="-319.8" font-family="Times,serif" font-size="14.00">com.xilinx:float2fix</text>
</g>
<!-- transpose&#45;&gt;float2fix_2 -->
<g id="edge5" class="edge">
<title>transpose&#45;&gt;float2fix_2</title>
<path fill="none" stroke="black" d="M98,-386.96C98,-378.88 98,-369.18 98,-360.18"/>
<polygon fill="black" stroke="black" points="101.5,-360.09 98,-350.09 94.5,-360.09 101.5,-360.09"/>
</g>
<!-- fix2float_2 -->
<g id="node7" class="node">
<title>fix2float_2</title>
<polygon fill="lightgrey" stroke="black" points="174,-275 22,-275 22,-237 174,-237 174,-275"/>
<text text-anchor="middle" x="98" y="-259.8" font-family="Times,serif" font-size="14.00">fix2float_2=</text>
<text text-anchor="middle" x="98" y="-244.8" font-family="Times,serif" font-size="14.00">com.xilinx:fix2float</text>
</g>
<!-- float2fix_2&#45;&gt;fix2float_2 -->
<g id="edge6" class="edge">
<title>float2fix_2&#45;&gt;fix2float_2</title>
<path fill="none" stroke="black" d="M98,-311.96C98,-303.88 98,-294.18 98,-285.18"/>
<polygon fill="black" stroke="black" points="101.5,-285.09 98,-275.09 94.5,-285.09 101.5,-285.09"/>
</g>
<!-- reshape_2 -->
<g id="node8" class="node">
<title>reshape_2</title>
<polygon fill="lightgrey" stroke="black" points="173.5,-200 22.5,-200 22.5,-162 173.5,-162 173.5,-200"/>
<text text-anchor="middle" x="98" y="-184.8" font-family="Times,serif" font-size="14.00">reshape_2=</text>
<text text-anchor="middle" x="98" y="-169.8" font-family="Times,serif" font-size="14.00">com.xilinx:reshape</text>
</g>
<!-- fix2float_2&#45;&gt;reshape_2 -->
<g id="edge7" class="edge">
<title>fix2float_2&#45;&gt;reshape_2</title>
<path fill="none" stroke="black" d="M98,-236.96C98,-228.88 98,-219.18 98,-210.18"/>
<polygon fill="black" stroke="black" points="101.5,-210.09 98,-200.09 94.5,-210.09 101.5,-210.09"/>
</g>
<!-- auto_id_transpose_01 -->
<g id="node10" class="node">
<title>auto_id_transpose_01</title>
<polygon fill="lightgrey" stroke="black" points="368,-649 204,-649 204,-613 368,-613 368,-649"/>
<text text-anchor="middle" x="286" y="-627.3" font-family="Times,serif" font-size="14.00">com.xilinx:transpose</text>
</g>
<!-- input1&#45;&gt;auto_id_transpose_01 -->
<g id="edge8" class="edge">
<title>input1&#45;&gt;auto_id_transpose_01</title>
<path fill="none" stroke="black" d="M286,-687.7C286,-679.25 286,-668.87 286,-659.37"/>
<polygon fill="black" stroke="black" points="289.5,-659.18 286,-649.18 282.5,-659.18 289.5,-659.18"/>
</g>
<!-- auto_id_reshape_11 -->
<g id="node11" class="node">
<title>auto_id_reshape_11</title>
<polygon fill="lightgrey" stroke="black" points="361.5,-574 210.5,-574 210.5,-538 361.5,-538 361.5,-574"/>
<text text-anchor="middle" x="286" y="-552.3" font-family="Times,serif" font-size="14.00">com.xilinx:reshape</text>
</g>
<!-- auto_id_transpose_01&#45;&gt;auto_id_reshape_11 -->
<g id="edge9" class="edge">
<title>auto_id_transpose_01&#45;&gt;auto_id_reshape_11</title>
<path fill="none" stroke="black" d="M286,-612.7C286,-604.25 286,-593.87 286,-584.37"/>
<polygon fill="black" stroke="black" points="289.5,-584.18 286,-574.18 282.5,-584.18 289.5,-584.18"/>
</g>
<!-- auto_id_float2fix_21 -->
<g id="node12" class="node">
<title>auto_id_float2fix_21</title>
<polygon fill="lightgrey" stroke="black" points="362,-499 210,-499 210,-463 362,-463 362,-499"/>
<text text-anchor="middle" x="286" y="-477.3" font-family="Times,serif" font-size="14.00">com.xilinx:float2fix</text>
</g>
<!-- auto_id_reshape_11&#45;&gt;auto_id_float2fix_21 -->
<g id="edge10" class="edge">
<title>auto_id_reshape_11&#45;&gt;auto_id_float2fix_21</title>
<path fill="none" stroke="black" d="M286,-537.7C286,-529.25 286,-518.87 286,-509.37"/>
<polygon fill="black" stroke="black" points="289.5,-509.18 286,-499.18 282.5,-509.18 289.5,-509.18"/>
</g>
<!-- auto_id_fix2float_31 -->
<g id="node13" class="node">
<title>auto_id_fix2float_31</title>
<polygon fill="lightgrey" stroke="black" points="362,-424 210,-424 210,-388 362,-388 362,-424"/>
<text text-anchor="middle" x="286" y="-402.3" font-family="Times,serif" font-size="14.00">com.xilinx:fix2float</text>
</g>
<!-- auto_id_float2fix_21&#45;&gt;auto_id_fix2float_31 -->
<g id="edge11" class="edge">
<title>auto_id_float2fix_21&#45;&gt;auto_id_fix2float_31</title>
<path fill="none" stroke="black" d="M286,-462.7C286,-454.25 286,-443.87 286,-434.37"/>
<polygon fill="black" stroke="black" points="289.5,-434.18 286,-424.18 282.5,-434.18 289.5,-434.18"/>
</g>
<!-- auto_id_transpose_41 -->
<g id="node14" class="node">
<title>auto_id_transpose_41</title>
<polygon fill="lightgrey" stroke="black" points="368,-349 204,-349 204,-313 368,-313 368,-349"/>
<text text-anchor="middle" x="286" y="-327.3" font-family="Times,serif" font-size="14.00">com.xilinx:transpose</text>
</g>
<!-- auto_id_fix2float_31&#45;&gt;auto_id_transpose_41 -->
<g id="edge12" class="edge">
<title>auto_id_fix2float_31&#45;&gt;auto_id_transpose_41</title>
<path fill="none" stroke="black" d="M286,-387.7C286,-379.25 286,-368.87 286,-359.37"/>
<polygon fill="black" stroke="black" points="289.5,-359.18 286,-349.18 282.5,-359.18 289.5,-359.18"/>
</g>
<!-- auto_id_float2fix_51 -->
<g id="node15" class="node">
<title>auto_id_float2fix_51</title>
<polygon fill="lightgrey" stroke="black" points="362,-274 210,-274 210,-238 362,-238 362,-274"/>
<text text-anchor="middle" x="286" y="-252.3" font-family="Times,serif" font-size="14.00">com.xilinx:float2fix</text>
</g>
<!-- auto_id_transpose_41&#45;&gt;auto_id_float2fix_51 -->
<g id="edge13" class="edge">
<title>auto_id_transpose_41&#45;&gt;auto_id_float2fix_51</title>
<path fill="none" stroke="black" d="M286,-312.7C286,-304.25 286,-293.87 286,-284.37"/>
<polygon fill="black" stroke="black" points="289.5,-284.18 286,-274.18 282.5,-284.18 289.5,-284.18"/>
</g>
<!-- auto_id_fix2float_61 -->
<g id="node16" class="node">
<title>auto_id_fix2float_61</title>
<polygon fill="lightgrey" stroke="black" points="362,-199 210,-199 210,-163 362,-163 362,-199"/>
<text text-anchor="middle" x="286" y="-177.3" font-family="Times,serif" font-size="14.00">com.xilinx:fix2float</text>
</g>
<!-- auto_id_float2fix_51&#45;&gt;auto_id_fix2float_61 -->
<g id="edge14" class="edge">
<title>auto_id_float2fix_51&#45;&gt;auto_id_fix2float_61</title>
<path fill="none" stroke="black" d="M286,-237.7C286,-229.25 286,-218.87 286,-209.37"/>
<polygon fill="black" stroke="black" points="289.5,-209.18 286,-199.18 282.5,-209.18 289.5,-209.18"/>
</g>
<!-- auto_id_reshape_71 -->
<g id="node17" class="node">
<title>auto_id_reshape_71</title>
<polygon fill="lightgrey" stroke="black" points="361.5,-125 210.5,-125 210.5,-89 361.5,-89 361.5,-125"/>
<text text-anchor="middle" x="286" y="-103.3" font-family="Times,serif" font-size="14.00">com.xilinx:reshape</text>
</g>
<!-- auto_id_fix2float_61&#45;&gt;auto_id_reshape_71 -->
<g id="edge15" class="edge">
<title>auto_id_fix2float_61&#45;&gt;auto_id_reshape_71</title>
<path fill="none" stroke="black" d="M286,-162.94C286,-154.81 286,-144.88 286,-135.7"/>
<polygon fill="black" stroke="black" points="289.5,-135.44 286,-125.44 282.5,-135.44 289.5,-135.44"/>
</g>
<!-- auto_id_transpose_81 -->
<g id="node18" class="node">
<title>auto_id_transpose_81</title>
<polygon fill="lightgrey" stroke="black" points="368,-52 204,-52 204,-16 368,-16 368,-52"/>
<text text-anchor="middle" x="286" y="-30.3" font-family="Times,serif" font-size="14.00">com.xilinx:transpose</text>
</g>
<!-- auto_id_reshape_71&#45;&gt;auto_id_transpose_81 -->
<g id="edge16" class="edge">
<title>auto_id_reshape_71&#45;&gt;auto_id_transpose_81</title>
<path fill="none" stroke="black" d="M286,-88.81C286,-80.79 286,-71.05 286,-62.07"/>
<polygon fill="black" stroke="black" points="289.5,-62.03 286,-52.03 282.5,-62.03 289.5,-62.03"/>
</g>
</g>
</svg>
