<?xml version="1.0" encoding="UTF-8" standalone="no"?>
<!DOCTYPE svg PUBLIC "-//W3C//DTD SVG 1.1//EN"
 "http://www.w3.org/Graphics/SVG/1.1/DTD/svg11.dtd">
<!-- Generated by graphviz version 2.43.0 (0)
 -->
<!-- Title: %3 Pages: 1 -->
<svg width="614pt" height="338pt"
 viewBox="0.00 0.00 614.00 337.50" xmlns="http://www.w3.org/2000/svg" xmlns:xlink="http://www.w3.org/1999/xlink">
<g id="graph0" class="graph" transform="scale(1 1) rotate(0) translate(4 333.5)">
<title>%3</title>
<polygon fill="white" stroke="transparent" points="-4,4 -4,-333.5 610,-333.5 610,4 -4,4"/>
<g id="clust1" class="cluster">
<title>cluster_0</title>
<polygon fill="none" stroke="blue" points="8,-81 8,-256 295,-256 295,-81 8,-81"/>
<text text-anchor="middle" x="43" y="-240.8" font-family="Times,serif" font-size="14.00">pattern</text>
</g>
<g id="clust2" class="cluster">
<title>cluster_1</title>
<polygon fill="none" stroke="yellow" points="346,-8 346,-255 598,-255 598,-8 346,-8"/>
<text text-anchor="middle" x="376" y="-239.8" font-family="Times,serif" font-size="14.00">action</text>
</g>
<!-- input -->
<g id="node1" class="node">
<title>input</title>
<polygon fill="lightgrey" stroke="black" points="287,-202 221,-202 221,-164 287,-164 287,-202"/>
<text text-anchor="middle" x="254" y="-186.8" font-family="Times,serif" font-size="14.00">input=</text>
<text text-anchor="middle" x="254" y="-171.8" font-family="Times,serif" font-size="14.00">*</text>
</g>
<!-- fixneuron -->
<g id="node4" class="node">
<title>fixneuron</title>
<polygon fill="lightgrey" stroke="black" points="272,-127 68,-127 68,-89 272,-89 272,-127"/>
<text text-anchor="middle" x="170" y="-111.8" font-family="Times,serif" font-size="14.00">fixneuron=</text>
<text text-anchor="middle" x="170" y="-96.8" font-family="Times,serif" font-size="14.00">ai.onnx.contrib:FixNeuron</text>
</g>
<!-- input&#45;&gt;fixneuron -->
<g id="edge1" class="edge">
<title>input&#45;&gt;fixneuron</title>
<path fill="none" stroke="black" d="M233.24,-163.96C222.74,-154.83 209.83,-143.62 198.43,-133.7"/>
<polygon fill="black" stroke="black" points="200.66,-131.01 190.82,-127.09 196.07,-136.29 200.66,-131.01"/>
</g>
<!-- input1 -->
<g id="node5" class="node">
<title>input1</title>
<polygon fill="lightgrey" stroke="black" points="518,-201 464,-201 464,-165 518,-165 518,-201"/>
<text text-anchor="middle" x="491" y="-179.3" font-family="Times,serif" font-size="14.00">input</text>
</g>
<!-- input&#45;&gt;input1 -->
<g id="edge10" class="edge">
<title>input&#45;&gt;input1</title>
<path fill="none" stroke="black" stroke-dasharray="1,5" d="M269.84,-202.22C285.89,-220.04 312.5,-245.36 342,-256 389.24,-273.04 412.35,-282.52 455,-256 470.75,-246.21 479.81,-227.27 484.91,-211.13"/>
<polygon fill="black" stroke="black" points="488.4,-211.63 487.71,-201.06 481.66,-209.76 488.4,-211.63"/>
<text text-anchor="middle" x="394" y="-267.8" font-family="Times,serif" font-size="14.00">identity</text>
</g>
<!-- scale -->
<g id="node2" class="node">
<title>scale</title>
<polygon fill="lightgrey" stroke="black" points="202.5,-202 137.5,-202 137.5,-164 202.5,-164 202.5,-202"/>
<text text-anchor="middle" x="170" y="-186.8" font-family="Times,serif" font-size="14.00">scale=</text>
<text text-anchor="middle" x="170" y="-171.8" font-family="Times,serif" font-size="14.00">*</text>
</g>
<!-- scale&#45;&gt;fixneuron -->
<g id="edge2" class="edge">
<title>scale&#45;&gt;fixneuron</title>
<path fill="none" stroke="black" d="M170,-163.96C170,-155.88 170,-146.18 170,-137.18"/>
<polygon fill="black" stroke="black" points="173.5,-137.09 170,-127.09 166.5,-137.09 173.5,-137.09"/>
</g>
<!-- scale1 -->
<g id="node6" class="node">
<title>scale1</title>
<polygon fill="lightgrey" stroke="black" points="590,-201 536,-201 536,-165 590,-165 590,-201"/>
<text text-anchor="middle" x="563" y="-179.3" font-family="Times,serif" font-size="14.00">scale</text>
</g>
<!-- scale&#45;&gt;scale1 -->
<g id="edge11" class="edge">
<title>scale&#45;&gt;scale1</title>
<path fill="none" stroke="black" stroke-dasharray="1,5" d="M175.07,-202.15C180.83,-219.65 192.13,-244.51 212,-256 242.3,-273.52 497.28,-274.48 527,-256 542.75,-246.21 551.81,-227.27 556.91,-211.13"/>
<polygon fill="black" stroke="black" points="560.4,-211.63 559.71,-201.06 553.66,-209.76 560.4,-211.63"/>
<text text-anchor="middle" x="248" y="-267.8" font-family="Times,serif" font-size="14.00">identity</text>
</g>
<!-- zero_point -->
<g id="node3" class="node">
<title>zero_point</title>
<polygon fill="lightgrey" stroke="black" points="119.5,-202 16.5,-202 16.5,-164 119.5,-164 119.5,-202"/>
<text text-anchor="middle" x="68" y="-186.8" font-family="Times,serif" font-size="14.00">zero_point=</text>
<text text-anchor="middle" x="68" y="-171.8" font-family="Times,serif" font-size="14.00">*</text>
</g>
<!-- zero_point&#45;&gt;fixneuron -->
<g id="edge3" class="edge">
<title>zero_point&#45;&gt;fixneuron</title>
<path fill="none" stroke="black" d="M93.21,-163.96C106.21,-154.65 122.24,-143.18 136.28,-133.13"/>
<polygon fill="black" stroke="black" points="138.63,-135.76 144.72,-127.09 134.55,-130.06 138.63,-135.76"/>
</g>
<!-- zero_point1 -->
<g id="node7" class="node">
<title>zero_point1</title>
<polygon fill="lightgrey" stroke="black" points="445.5,-201 354.5,-201 354.5,-165 445.5,-165 445.5,-201"/>
<text text-anchor="middle" x="400" y="-179.3" font-family="Times,serif" font-size="14.00">zero_point</text>
</g>
<!-- zero_point&#45;&gt;zero_point1 -->
<g id="edge12" class="edge">
<title>zero_point&#45;&gt;zero_point1</title>
<path fill="none" stroke="black" stroke-dasharray="1,5" d="M77.58,-202.04C87.67,-219.73 105.36,-244.95 129,-256 197.44,-288 227.11,-279.26 299,-256 328.13,-246.58 355.91,-225.27 374.94,-208.09"/>
<polygon fill="black" stroke="black" points="377.34,-210.64 382.29,-201.27 372.58,-205.51 377.34,-210.64"/>
<text text-anchor="middle" x="309" y="-267.8" font-family="Times,serif" font-size="14.00">identity</text>
</g>
<!-- auto_id_QuantizeLinear_01 -->
<g id="node8" class="node">
<title>auto_id_QuantizeLinear_01</title>
<polygon fill="lightgrey" stroke="black" points="570,-126 388,-126 388,-90 570,-90 570,-126"/>
<text text-anchor="middle" x="479" y="-104.3" font-family="Times,serif" font-size="14.00">ai.onnx:QuantizeLinear</text>
</g>
<!-- input1&#45;&gt;auto_id_QuantizeLinear_01 -->
<g id="edge4" class="edge">
<title>input1&#45;&gt;auto_id_QuantizeLinear_01</title>
<path fill="none" stroke="black" d="M488.16,-164.7C486.75,-156.15 485.02,-145.65 483.45,-136.07"/>
<polygon fill="black" stroke="black" points="486.9,-135.48 481.82,-126.18 479.99,-136.61 486.9,-135.48"/>
</g>
<!-- scale1&#45;&gt;auto_id_QuantizeLinear_01 -->
<g id="edge5" class="edge">
<title>scale1&#45;&gt;auto_id_QuantizeLinear_01</title>
<path fill="none" stroke="black" d="M543.09,-164.7C532.11,-155.15 518.31,-143.16 506.33,-132.75"/>
<polygon fill="black" stroke="black" points="508.61,-130.09 498.76,-126.18 504.02,-135.38 508.61,-130.09"/>
</g>
<!-- auto_id_DequantizeLinear_11 -->
<g id="node9" class="node">
<title>auto_id_DequantizeLinear_11</title>
<polygon fill="lightgrey" stroke="black" points="579,-52 379,-52 379,-16 579,-16 579,-52"/>
<text text-anchor="middle" x="479" y="-30.3" font-family="Times,serif" font-size="14.00">ai.onnx:DequantizeLinear</text>
</g>
<!-- scale1&#45;&gt;auto_id_DequantizeLinear_11 -->
<g id="edge8" class="edge">
<title>scale1&#45;&gt;auto_id_DequantizeLinear_11</title>
<path fill="none" stroke="black" d="M572.36,-164.82C582.59,-143.47 595.47,-106.71 579,-81 572.56,-70.94 563.3,-63.06 552.99,-56.88"/>
<polygon fill="black" stroke="black" points="554.57,-53.76 544.11,-52.08 551.24,-59.91 554.57,-53.76"/>
</g>
<!-- zero_point1&#45;&gt;auto_id_QuantizeLinear_01 -->
<g id="edge6" class="edge">
<title>zero_point1&#45;&gt;auto_id_QuantizeLinear_01</title>
<path fill="none" stroke="black" d="M418.72,-164.7C428.95,-155.25 441.79,-143.39 452.98,-133.05"/>
<polygon fill="black" stroke="black" points="455.44,-135.53 460.41,-126.18 450.69,-130.39 455.44,-135.53"/>
</g>
<!-- zero_point1&#45;&gt;auto_id_DequantizeLinear_11 -->
<g id="edge9" class="edge">
<title>zero_point1&#45;&gt;auto_id_DequantizeLinear_11</title>
<path fill="none" stroke="black" d="M389.33,-164.89C377.57,-143.61 362.38,-106.94 379,-81 385.44,-70.94 394.7,-63.06 405.01,-56.88"/>
<polygon fill="black" stroke="black" points="406.76,-59.91 413.89,-52.08 403.43,-53.76 406.76,-59.91"/>
</g>
<!-- auto_id_QuantizeLinear_01&#45;&gt;auto_id_DequantizeLinear_11 -->
<g id="edge7" class="edge">
<title>auto_id_QuantizeLinear_01&#45;&gt;auto_id_DequantizeLinear_11</title>
<path fill="none" stroke="black" d="M479,-89.94C479,-81.81 479,-71.88 479,-62.7"/>
<polygon fill="black" stroke="black" points="482.5,-62.44 479,-52.44 475.5,-62.44 482.5,-62.44"/>
</g>
</g>
</svg>
