<?xml version="1.0" encoding="UTF-8" standalone="no"?>
<!DOCTYPE svg PUBLIC "-//W3C//DTD SVG 1.1//EN"
 "http://www.w3.org/Graphics/SVG/1.1/DTD/svg11.dtd">
<!-- Generated by graphviz version 2.43.0 (0)
 -->
<!-- Title: %3 Pages: 1 -->
<svg width="519pt" height="262pt"
 viewBox="0.00 0.00 519.00 261.50" xmlns="http://www.w3.org/2000/svg" xmlns:xlink="http://www.w3.org/1999/xlink">
<g id="graph0" class="graph" transform="scale(1 1) rotate(0) translate(4 257.5)">
<title>%3</title>
<polygon fill="white" stroke="transparent" points="-4,4 -4,-257.5 515,-257.5 515,4 -4,4"/>
<g id="clust1" class="cluster">
<title>cluster_0</title>
<polygon fill="none" stroke="blue" points="8,-8 8,-181 222,-181 222,-8 8,-8"/>
<text text-anchor="middle" x="43" y="-165.8" font-family="Times,serif" font-size="14.00">pattern</text>
</g>
<g id="clust2" class="cluster">
<title>cluster_1</title>
<polygon fill="none" stroke="yellow" points="285,-9 285,-181 503,-181 503,-9 285,-9"/>
<text text-anchor="middle" x="315" y="-165.8" font-family="Times,serif" font-size="14.00">action</text>
</g>
<!-- auto_id_1 -->
<g id="node1" class="node">
<title>auto_id_1</title>
<polygon fill="lightgrey" stroke="black" points="214,-127 160,-127 160,-91 214,-91 214,-127"/>
<text text-anchor="middle" x="187" y="-105.3" font-family="Times,serif" font-size="14.00">*</text>
</g>
<!-- main_node -->
<g id="node4" class="node">
<title>main_node</title>
<polygon fill="lightgrey" stroke="black" points="178,-54 52,-54 52,-16 178,-16 178,-54"/>
<text text-anchor="middle" x="115" y="-38.8" font-family="Times,serif" font-size="14.00">main_node=</text>
<text text-anchor="middle" x="115" y="-23.8" font-family="Times,serif" font-size="14.00">QuantizeLinear</text>
</g>
<!-- auto_id_1&#45;&gt;main_node -->
<g id="edge1" class="edge">
<title>auto_id_1&#45;&gt;main_node</title>
<path fill="none" stroke="black" d="M169.94,-90.94C161.12,-82.12 150.19,-71.19 140.4,-61.4"/>
<polygon fill="black" stroke="black" points="142.75,-58.8 133.2,-54.2 137.8,-63.75 142.75,-58.8"/>
</g>
<!-- auto_id_11 -->
<g id="node5" class="node">
<title>auto_id_11</title>
<polygon fill="lightgrey" stroke="black" points="493,-127 439,-127 439,-91 493,-91 493,-127"/>
<text text-anchor="middle" x="466" y="-105.3" font-family="Times,serif" font-size="14.00">*</text>
</g>
<!-- auto_id_1&#45;&gt;auto_id_11 -->
<g id="edge7" class="edge">
<title>auto_id_1&#45;&gt;auto_id_11</title>
<path fill="none" stroke="black" stroke-dasharray="1,5" d="M203.6,-127.33C220.92,-144.96 249.85,-170.44 281,-181 343.72,-202.26 373.67,-215.82 430,-181 445.51,-171.42 454.56,-152.91 459.7,-137.06"/>
<polygon fill="black" stroke="black" points="463.15,-137.72 462.55,-127.15 456.43,-135.79 463.15,-137.72"/>
<text text-anchor="middle" x="351" y="-192.8" font-family="Times,serif" font-size="14.00">identity</text>
</g>
<!-- auto_id_2 -->
<g id="node2" class="node">
<title>auto_id_2</title>
<polygon fill="lightgrey" stroke="black" points="142,-127 88,-127 88,-91 142,-91 142,-127"/>
<text text-anchor="middle" x="115" y="-105.3" font-family="Times,serif" font-size="14.00">*</text>
</g>
<!-- auto_id_2&#45;&gt;main_node -->
<g id="edge2" class="edge">
<title>auto_id_2&#45;&gt;main_node</title>
<path fill="none" stroke="black" d="M115,-90.94C115,-82.99 115,-73.31 115,-64.31"/>
<polygon fill="black" stroke="black" points="118.5,-64.2 115,-54.2 111.5,-64.2 118.5,-64.2"/>
</g>
<!-- auto_id_21 -->
<g id="node6" class="node">
<title>auto_id_21</title>
<polygon fill="lightgrey" stroke="black" points="421,-127 367,-127 367,-91 421,-91 421,-127"/>
<text text-anchor="middle" x="394" y="-105.3" font-family="Times,serif" font-size="14.00">*</text>
</g>
<!-- auto_id_2&#45;&gt;auto_id_21 -->
<g id="edge8" class="edge">
<title>auto_id_2&#45;&gt;auto_id_21</title>
<path fill="none" stroke="black" stroke-dasharray="1,5" d="M118.45,-127.15C122.79,-144.37 132.1,-169.32 151,-181 190.13,-205.18 318.87,-205.18 358,-181 373.51,-171.42 382.56,-152.91 387.7,-137.06"/>
<polygon fill="black" stroke="black" points="391.15,-137.72 390.55,-127.15 384.43,-135.79 391.15,-137.72"/>
<text text-anchor="middle" x="188" y="-192.8" font-family="Times,serif" font-size="14.00">identity</text>
</g>
<!-- auto_id_3 -->
<g id="node3" class="node">
<title>auto_id_3</title>
<polygon fill="lightgrey" stroke="black" points="70,-127 16,-127 16,-91 70,-91 70,-127"/>
<text text-anchor="middle" x="43" y="-105.3" font-family="Times,serif" font-size="14.00">*</text>
</g>
<!-- auto_id_3&#45;&gt;main_node -->
<g id="edge3" class="edge">
<title>auto_id_3&#45;&gt;main_node</title>
<path fill="none" stroke="black" d="M60.06,-90.94C68.88,-82.12 79.81,-71.19 89.6,-61.4"/>
<polygon fill="black" stroke="black" points="92.2,-63.75 96.8,-54.2 87.25,-58.8 92.2,-63.75"/>
</g>
<!-- auto_id_31 -->
<g id="node7" class="node">
<title>auto_id_31</title>
<polygon fill="lightgrey" stroke="black" points="349,-127 295,-127 295,-91 349,-91 349,-127"/>
<text text-anchor="middle" x="322" y="-105.3" font-family="Times,serif" font-size="14.00">*</text>
</g>
<!-- auto_id_3&#45;&gt;auto_id_31 -->
<g id="edge9" class="edge">
<title>auto_id_3&#45;&gt;auto_id_31</title>
<path fill="none" stroke="black" stroke-dasharray="1,5" d="M46.45,-127.15C50.79,-144.37 60.1,-169.32 79,-181 134.58,-215.35 164.02,-201.66 226,-181 253.59,-171.8 279.64,-151.22 297.63,-134.41"/>
<polygon fill="black" stroke="black" points="300.53,-136.47 305.3,-127 295.67,-131.43 300.53,-136.47"/>
<text text-anchor="middle" x="249" y="-192.8" font-family="Times,serif" font-size="14.00">identity</text>
</g>
<!-- auto_id_quantizeLinear_01 -->
<g id="node8" class="node">
<title>auto_id_quantizeLinear_01</title>
<polygon fill="lightgrey" stroke="black" points="494.5,-53 293.5,-53 293.5,-17 494.5,-17 494.5,-53"/>
<text text-anchor="middle" x="394" y="-31.3" font-family="Times,serif" font-size="14.00">com.xilinx:quantizeLinear</text>
</g>
<!-- auto_id_11&#45;&gt;auto_id_quantizeLinear_01 -->
<g id="edge4" class="edge">
<title>auto_id_11&#45;&gt;auto_id_quantizeLinear_01</title>
<path fill="none" stroke="black" d="M448.94,-90.94C439.92,-81.92 428.7,-70.7 418.74,-60.74"/>
<polygon fill="black" stroke="black" points="420.99,-58.04 411.44,-53.44 416.04,-62.99 420.99,-58.04"/>
</g>
<!-- auto_id_21&#45;&gt;auto_id_quantizeLinear_01 -->
<g id="edge5" class="edge">
<title>auto_id_21&#45;&gt;auto_id_quantizeLinear_01</title>
<path fill="none" stroke="black" d="M394,-90.94C394,-82.81 394,-72.88 394,-63.7"/>
<polygon fill="black" stroke="black" points="397.5,-63.44 394,-53.44 390.5,-63.44 397.5,-63.44"/>
</g>
<!-- auto_id_31&#45;&gt;auto_id_quantizeLinear_01 -->
<g id="edge6" class="edge">
<title>auto_id_31&#45;&gt;auto_id_quantizeLinear_01</title>
<path fill="none" stroke="black" d="M339.06,-90.94C348.08,-81.92 359.3,-70.7 369.26,-60.74"/>
<polygon fill="black" stroke="black" points="371.96,-62.99 376.56,-53.44 367.01,-58.04 371.96,-62.99"/>
</g>
</g>
</svg>
