<?xml version="1.0" encoding="UTF-8" standalone="no"?>
<!DOCTYPE svg PUBLIC "-//W3C//DTD SVG 1.1//EN"
 "http://www.w3.org/Graphics/SVG/1.1/DTD/svg11.dtd">
<!-- Generated by graphviz version 2.43.0 (0)
 -->
<!-- Title: %3 Pages: 1 -->
<svg width="540pt" height="340pt"
 viewBox="0.00 0.00 540.00 339.50" xmlns="http://www.w3.org/2000/svg" xmlns:xlink="http://www.w3.org/1999/xlink">
<g id="graph0" class="graph" transform="scale(1 1) rotate(0) translate(4 335.5)">
<title>%3</title>
<polygon fill="white" stroke="transparent" points="-4,4 -4,-335.5 536,-335.5 536,4 -4,4"/>
<g id="clust1" class="cluster">
<title>cluster_0</title>
<polygon fill="none" stroke="blue" points="8,-8 8,-258 296,-258 296,-8 8,-8"/>
<text text-anchor="middle" x="43" y="-242.8" font-family="Times,serif" font-size="14.00">pattern</text>
</g>
<g id="clust2" class="cluster">
<title>cluster_1</title>
<polygon fill="none" stroke="yellow" points="304,-84 304,-257 524,-257 524,-84 304,-84"/>
<text text-anchor="middle" x="334" y="-241.8" font-family="Times,serif" font-size="14.00">action</text>
</g>
<!-- input -->
<g id="node1" class="node">
<title>input</title>
<polygon fill="lightgrey" stroke="black" points="274,-204 208,-204 208,-166 274,-166 274,-204"/>
<text text-anchor="middle" x="241" y="-188.8" font-family="Times,serif" font-size="14.00">input=</text>
<text text-anchor="middle" x="241" y="-173.8" font-family="Times,serif" font-size="14.00">*</text>
</g>
<!-- mul_a -->
<g id="node3" class="node">
<title>mul_a</title>
<polygon fill="lightgrey" stroke="black" points="287.5,-129 166.5,-129 166.5,-91 287.5,-91 287.5,-129"/>
<text text-anchor="middle" x="227" y="-113.8" font-family="Times,serif" font-size="14.00">mul_a=</text>
<text text-anchor="middle" x="227" y="-98.8" font-family="Times,serif" font-size="14.00">com.xilinx:mul</text>
</g>
<!-- input&#45;&gt;mul_a -->
<g id="edge1" class="edge">
<title>input&#45;&gt;mul_a</title>
<path fill="none" stroke="black" d="M237.54,-165.96C235.99,-157.88 234.13,-148.18 232.4,-139.18"/>
<polygon fill="black" stroke="black" points="235.79,-138.25 230.47,-129.09 228.92,-139.57 235.79,-138.25"/>
</g>
<!-- input1 -->
<g id="node6" class="node">
<title>input1</title>
<polygon fill="lightgrey" stroke="black" points="516,-203 462,-203 462,-167 516,-167 516,-203"/>
<text text-anchor="middle" x="489" y="-181.3" font-family="Times,serif" font-size="14.00">input</text>
</g>
<!-- input&#45;&gt;input1 -->
<g id="edge7" class="edge">
<title>input&#45;&gt;input1</title>
<path fill="none" stroke="black" stroke-dasharray="1,5" d="M250.1,-204.03C259.74,-221.7 276.77,-246.9 300,-258 330.68,-272.65 424.13,-275.95 453,-258 468.75,-248.21 477.81,-229.27 482.91,-213.13"/>
<polygon fill="black" stroke="black" points="486.4,-213.63 485.71,-203.06 479.66,-211.76 486.4,-213.63"/>
<text text-anchor="middle" x="368" y="-269.8" font-family="Times,serif" font-size="14.00">identity</text>
</g>
<!-- const_a -->
<g id="node2" class="node">
<title>const_a</title>
<polygon fill="lightgrey" stroke="black" points="190,-204 58,-204 58,-166 190,-166 190,-204"/>
<text text-anchor="middle" x="124" y="-188.8" font-family="Times,serif" font-size="14.00">const_a=</text>
<text text-anchor="middle" x="124" y="-173.8" font-family="Times,serif" font-size="14.00">com.xilinx:const</text>
</g>
<!-- const_a&#45;&gt;mul_a -->
<g id="edge2" class="edge">
<title>const_a&#45;&gt;mul_a</title>
<path fill="none" stroke="black" d="M149.46,-165.96C162.58,-156.65 178.77,-145.18 192.95,-135.13"/>
<polygon fill="black" stroke="black" points="195.34,-137.73 201.48,-129.09 191.29,-132.02 195.34,-137.73"/>
</g>
<!-- mul_b -->
<g id="node5" class="node">
<title>mul_b</title>
<polygon fill="lightgrey" stroke="black" points="214.5,-54 93.5,-54 93.5,-16 214.5,-16 214.5,-54"/>
<text text-anchor="middle" x="154" y="-38.8" font-family="Times,serif" font-size="14.00">mul_b=</text>
<text text-anchor="middle" x="154" y="-23.8" font-family="Times,serif" font-size="14.00">com.xilinx:mul</text>
</g>
<!-- mul_a&#45;&gt;mul_b -->
<g id="edge3" class="edge">
<title>mul_a&#45;&gt;mul_b</title>
<path fill="none" stroke="black" d="M208.96,-90.96C200.01,-82.01 189.05,-71.05 179.28,-61.28"/>
<polygon fill="black" stroke="black" points="181.64,-58.69 172.09,-54.09 176.69,-63.64 181.64,-58.69"/>
</g>
<!-- const_b -->
<g id="node4" class="node">
<title>const_b</title>
<polygon fill="lightgrey" stroke="black" points="148,-129 16,-129 16,-91 148,-91 148,-129"/>
<text text-anchor="middle" x="82" y="-113.8" font-family="Times,serif" font-size="14.00">const_b=</text>
<text text-anchor="middle" x="82" y="-98.8" font-family="Times,serif" font-size="14.00">com.xilinx:const</text>
</g>
<!-- const_b&#45;&gt;mul_b -->
<g id="edge4" class="edge">
<title>const_b&#45;&gt;mul_b</title>
<path fill="none" stroke="black" d="M99.8,-90.96C108.62,-82.01 119.43,-71.05 129.07,-61.28"/>
<polygon fill="black" stroke="black" points="131.63,-63.67 136.16,-54.09 126.64,-58.75 131.63,-63.67"/>
</g>
<!-- auto_id_mul_11 -->
<g id="node8" class="node">
<title>auto_id_mul_11</title>
<polygon fill="lightgrey" stroke="black" points="487.5,-128 366.5,-128 366.5,-92 487.5,-92 487.5,-128"/>
<text text-anchor="middle" x="427" y="-106.3" font-family="Times,serif" font-size="14.00">com.xilinx:mul</text>
</g>
<!-- input1&#45;&gt;auto_id_mul_11 -->
<g id="edge5" class="edge">
<title>input1&#45;&gt;auto_id_mul_11</title>
<path fill="none" stroke="black" d="M474.31,-166.7C466.51,-157.52 456.79,-146.07 448.19,-135.94"/>
<polygon fill="black" stroke="black" points="450.73,-133.53 441.59,-128.18 445.39,-138.06 450.73,-133.53"/>
</g>
<!-- auto_id_const_01 -->
<g id="node7" class="node">
<title>auto_id_const_01</title>
<polygon fill="lightgrey" stroke="black" points="444,-203 312,-203 312,-167 444,-167 444,-203"/>
<text text-anchor="middle" x="378" y="-181.3" font-family="Times,serif" font-size="14.00">com.xilinx:const</text>
</g>
<!-- auto_id_const_01&#45;&gt;auto_id_mul_11 -->
<g id="edge6" class="edge">
<title>auto_id_const_01&#45;&gt;auto_id_mul_11</title>
<path fill="none" stroke="black" d="M389.61,-166.7C395.65,-157.7 403.16,-146.52 409.85,-136.55"/>
<polygon fill="black" stroke="black" points="412.8,-138.43 415.47,-128.18 406.99,-134.53 412.8,-138.43"/>
</g>
</g>
</svg>
