<?xml version="1.0" encoding="UTF-8" standalone="no"?>
<!DOCTYPE svg PUBLIC "-//W3C//DTD SVG 1.1//EN"
 "http://www.w3.org/Graphics/SVG/1.1/DTD/svg11.dtd">
<!-- Generated by graphviz version 2.43.0 (0)
 -->
<!-- Title: %3 Pages: 1 -->
<svg width="477pt" height="429pt"
 viewBox="0.00 0.00 477.00 428.50" xmlns="http://www.w3.org/2000/svg" xmlns:xlink="http://www.w3.org/1999/xlink">
<g id="graph0" class="graph" transform="scale(1 1) rotate(0) translate(4 424.5)">
<title>%3</title>
<polygon fill="white" stroke="transparent" points="-4,4 -4,-424.5 473,-424.5 473,4 -4,4"/>
<g id="clust1" class="cluster">
<title>cluster_0</title>
<polygon fill="none" stroke="blue" points="8,-8 8,-347 285,-347 285,-8 8,-8"/>
<text text-anchor="middle" x="43" y="-331.8" font-family="Times,serif" font-size="14.00">pattern</text>
</g>
<g id="clust2" class="cluster">
<title>cluster_1</title>
<polygon fill="none" stroke="yellow" points="293,-159 293,-346 461,-346 461,-159 293,-159"/>
<text text-anchor="middle" x="323" y="-330.8" font-family="Times,serif" font-size="14.00">action</text>
</g>
<!-- input -->
<g id="node1" class="node">
<title>input</title>
<polygon fill="lightgrey" stroke="black" points="255,-293 189,-293 189,-255 255,-255 255,-293"/>
<text text-anchor="middle" x="222" y="-277.8" font-family="Times,serif" font-size="14.00">input=</text>
<text text-anchor="middle" x="222" y="-262.8" font-family="Times,serif" font-size="14.00">*</text>
</g>
<!-- before_fix -->
<g id="node2" class="node">
<title>before_fix</title>
<polygon fill="lightgrey" stroke="black" points="277.5,-204 166.5,-204 166.5,-166 277.5,-166 277.5,-204"/>
<text text-anchor="middle" x="222" y="-188.8" font-family="Times,serif" font-size="14.00">before_fix=</text>
<text text-anchor="middle" x="222" y="-173.8" font-family="Times,serif" font-size="14.00">com.xilinx:fix</text>
</g>
<!-- input&#45;&gt;before_fix -->
<g id="edge1" class="edge">
<title>input&#45;&gt;before_fix</title>
<path fill="none" stroke="black" d="M222,-254.97C222,-243.19 222,-227.56 222,-214.16"/>
<polygon fill="black" stroke="black" points="225.5,-214 222,-204 218.5,-214 225.5,-214"/>
</g>
<!-- input1 -->
<g id="node6" class="node">
<title>input1</title>
<polygon fill="lightgrey" stroke="black" points="443,-292 389,-292 389,-256 443,-256 443,-292"/>
<text text-anchor="middle" x="416" y="-270.3" font-family="Times,serif" font-size="14.00">input</text>
</g>
<!-- input&#45;&gt;input1 -->
<g id="edge7" class="edge">
<title>input&#45;&gt;input1</title>
<path fill="none" stroke="black" stroke-dasharray="1,5" d="M233,-293.09C244.43,-310.82 264.12,-336.06 289,-347 326.03,-363.27 345.65,-368.36 380,-347 395.75,-337.21 404.81,-318.27 409.91,-302.13"/>
<polygon fill="black" stroke="black" points="413.4,-302.63 412.71,-292.06 406.66,-300.76 413.4,-302.63"/>
<text text-anchor="middle" x="327" y="-358.8" font-family="Times,serif" font-size="14.00">identity</text>
</g>
<!-- reshape -->
<g id="node4" class="node">
<title>reshape</title>
<polygon fill="lightgrey" stroke="black" points="221.5,-129 70.5,-129 70.5,-91 221.5,-91 221.5,-129"/>
<text text-anchor="middle" x="146" y="-113.8" font-family="Times,serif" font-size="14.00">reshape=</text>
<text text-anchor="middle" x="146" y="-98.8" font-family="Times,serif" font-size="14.00">com.xilinx:reshape</text>
</g>
<!-- before_fix&#45;&gt;reshape -->
<g id="edge2" class="edge">
<title>before_fix&#45;&gt;reshape</title>
<path fill="none" stroke="black" d="M203.21,-165.96C193.9,-157.01 182.49,-146.05 172.32,-136.28"/>
<polygon fill="black" stroke="black" points="174.47,-133.49 164.83,-129.09 169.62,-138.54 174.47,-133.49"/>
</g>
<!-- shape -->
<g id="node3" class="node">
<title>shape</title>
<polygon fill="lightgrey" stroke="black" points="148,-204 16,-204 16,-166 148,-166 148,-204"/>
<text text-anchor="middle" x="82" y="-188.8" font-family="Times,serif" font-size="14.00">shape=</text>
<text text-anchor="middle" x="82" y="-173.8" font-family="Times,serif" font-size="14.00">com.xilinx:const</text>
</g>
<!-- shape&#45;&gt;reshape -->
<g id="edge3" class="edge">
<title>shape&#45;&gt;reshape</title>
<path fill="none" stroke="black" d="M97.82,-165.96C105.51,-157.18 114.9,-146.48 123.33,-136.85"/>
<polygon fill="black" stroke="black" points="126.18,-138.92 130.14,-129.09 120.92,-134.3 126.18,-138.92"/>
</g>
<!-- shape1 -->
<g id="node7" class="node">
<title>shape1</title>
<polygon fill="lightgrey" stroke="black" points="370.5,-292 311.5,-292 311.5,-256 370.5,-256 370.5,-292"/>
<text text-anchor="middle" x="341" y="-270.3" font-family="Times,serif" font-size="14.00">shape</text>
</g>
<!-- shape&#45;&gt;shape1 -->
<g id="edge8" class="edge">
<title>shape&#45;&gt;shape1</title>
<path fill="none" stroke="black" stroke-dasharray="1,5" d="M136.97,-204.13C178.72,-217.95 237.53,-237.51 289,-255 293.07,-256.38 297.32,-257.84 301.55,-259.29"/>
<polygon fill="black" stroke="black" points="300.73,-262.71 311.32,-262.66 303.01,-256.09 300.73,-262.71"/>
<text text-anchor="middle" x="260" y="-225.8" font-family="Times,serif" font-size="14.00">identity</text>
</g>
<!-- after_fix -->
<g id="node5" class="node">
<title>after_fix</title>
<polygon fill="lightgrey" stroke="black" points="201.5,-54 90.5,-54 90.5,-16 201.5,-16 201.5,-54"/>
<text text-anchor="middle" x="146" y="-38.8" font-family="Times,serif" font-size="14.00">after_fix=</text>
<text text-anchor="middle" x="146" y="-23.8" font-family="Times,serif" font-size="14.00">com.xilinx:fix</text>
</g>
<!-- reshape&#45;&gt;after_fix -->
<g id="edge4" class="edge">
<title>reshape&#45;&gt;after_fix</title>
<path fill="none" stroke="black" d="M146,-90.96C146,-82.88 146,-73.18 146,-64.18"/>
<polygon fill="black" stroke="black" points="149.5,-64.09 146,-54.09 142.5,-64.09 149.5,-64.09"/>
</g>
<!-- auto_id_reshape_01 -->
<g id="node8" class="node">
<title>auto_id_reshape_01</title>
<polygon fill="lightgrey" stroke="black" points="452.5,-203 301.5,-203 301.5,-167 452.5,-167 452.5,-203"/>
<text text-anchor="middle" x="377" y="-181.3" font-family="Times,serif" font-size="14.00">com.xilinx:reshape</text>
</g>
<!-- input1&#45;&gt;auto_id_reshape_01 -->
<g id="edge5" class="edge">
<title>input1&#45;&gt;auto_id_reshape_01</title>
<path fill="none" stroke="black" d="M408.29,-255.81C402.74,-243.42 395.14,-226.46 388.82,-212.37"/>
<polygon fill="black" stroke="black" points="391.97,-210.85 384.69,-203.15 385.59,-213.71 391.97,-210.85"/>
</g>
<!-- shape1&#45;&gt;auto_id_reshape_01 -->
<g id="edge6" class="edge">
<title>shape1&#45;&gt;auto_id_reshape_01</title>
<path fill="none" stroke="black" d="M348.11,-255.81C353.19,-243.54 360.12,-226.79 365.92,-212.77"/>
<polygon fill="black" stroke="black" points="369.31,-213.73 369.9,-203.15 362.84,-211.05 369.31,-213.73"/>
</g>
</g>
</svg>
